<?xml version="1.0" standalone="no"?>
<!DOCTYPE svg PUBLIC "-//W3C//DTD SVG 20010904//EN"
 "http://www.w3.org/TR/2001/REC-SVG-20010904/DTD/svg10.dtd">
<svg version="1.0" xmlns="http://www.w3.org/2000/svg"
 width="94.000000pt" height="94.000000pt" viewBox="0 0 94.000000 94.000000"
 preserveAspectRatio="xMidYMid meet">
<metadata>
Created by potrace 1.11, written by Peter Selinger 2001-2013
</metadata>
<g transform="translate(0.000000,94.000000) scale(0.100000,-0.100000)"
fill="#000000" stroke="none">
<path d="M0 866 l0 -43 186 1 c102 0 187 0 189 -2 2 -2 -82 -89 -186 -193
l-189 -189 0 -62 0 -63 295 295 c162 162 295 296 295 297 0 2 -133 3 -295 3
l-295 0 0 -44z"/>
<path d="M759 902 c-8 -2 -182 -171 -386 -376 l-373 -371 0 -64 0 -63 188 188
c104 104 197 195 206 203 16 13 36 -4 217 -185 l199 -199 55 -1 c30 0 55 2 55
5 0 3 -102 107 -226 232 l-225 226 200 201 c111 110 201 202 201 204 0 5 -94
5 -111 0z"/>
</g>
</svg>
